<svg xmlns="http://www.w3.org/2000/svg" version="1.1" xmlnsXlink="http://www.w3.org/1999/xlink" xmlnsSvgjs="http://svgjs.dev/svgjs" width="100%" height="100%" viewBox="0 0 1000 600"><rect width="1000" height="600" x="0" y="0" fill="#ffffff"/><g><rect width="333.3333333333333" height="333.3333333333333" rx="13.333333333333334" ry="13.333333333333334" y="215.82352145399153" fill="#e66510" transform="matrix(0.6456567602911004,0,0,0.6456567602911005,0,53.04261178935616)" x="193.6012725830078"/><path d="M298.14643524145725 307.4901904759221L298.14643524145725 457.49019450002163L278.36718095033257 457.49019450002163L278.36718095033257 307.4901904759221L298.14643524145725 307.4901904759221ZM389.4240309701289 398.7677862045937L354.08509663665285 398.7677862045937L354.08509663665285 457.49019450002163L334.30584234552816 457.49019450002163L334.30584234552816 307.4901904759221L389.6291491627776 307.4901904759221Q414.24333228062164 307.4901904759221 428.22067197968306 320.0610054253924Q442.1687090797947 332.63182037486274 442.1687090797947 353.34875783238147L442.1687090797947 353.34875783238147Q442.1687090797947 375.17919404999316 428.51369796918124 386.9881414267683Q414.8879894575176 398.7677862045937 389.4240309701289 398.7677862045937L389.4240309701289 398.7677862045937ZM354.08509663665285 323.7824354920188L354.08509663665285 382.5927515842962L389.6291491627776 382.5927515842962Q405.511157793577 382.5927515842962 413.9503062911235 375.12058885209353Q422.38945478867004 367.64842611989087 422.38945478867004 353.55387602503015L422.38945478867004 353.55387602503015Q422.38945478867004 340.162588304965 413.9503062911235 332.10437359376607Q405.511157793577 324.0754614815169 390.7719505218204 323.7824354920188L390.7719505218204 323.7824354920188L354.08509663665285 323.7824354920188Z " fill="#ffffff" transform="matrix(0.6456567602911004,0,0,0.6456567602911005,0,53.04261178935616)"/><path d="M629.7803681496798 307.49019053020754L629.7803681496798 455.4666809969194L610.2679377794843 455.4666809969194L610.2679377794843 307.49019053020754L629.7803681496798 307.49019053020754ZM662.5034365631038 345.5032956217735L680.310335982423 345.5032956217735L680.917389371718 359.32098705429706Q693.5209740256516 343.47978432412356 713.842808914907 343.47978432412356L713.842808914907 343.47978432412356Q748.7050178429896 343.47978432412356 748.994090885511 382.79371810703594L748.994090885511 382.79371810703594L748.994090885511 455.4666809969194L730.2043431216191 455.4666809969194L730.2043431216191 382.7069961942795Q730.0887139046105 370.7971868423972 724.7697699222165 365.1313552089775Q719.4219186355704 359.43661627130564 708.1480699772352 359.43661627130564L708.1480699772352 359.43661627130564Q699.0133618335585 359.43661627130564 692.0756088130445 364.2930433856654Q685.1667630967827 369.1783778042773 681.322091631248 377.09897916936404L681.322091631248 377.09897916936404L681.322091631248 455.4666809969194L662.5034365631038 455.4666809969194L662.5034365631038 345.5032956217735ZM841.381835275355 426.2992110065087L841.381835275355 426.2992110065087Q841.381835275355 418.6676826839434 835.6292817291788 414.44721626313077Q829.9056354872548 410.25565714657023 815.6254271866969 407.19148289584325Q801.345218886139 404.1562159493684 792.9621006530181 399.8779349200515Q784.5789824198971 395.59965389073454 780.5608671288494 389.70256382329774Q776.5427518378018 383.8054737558609 776.5427518378018 375.68252126100913L776.5427518378018 375.68252126100913Q776.5427518378018 362.1828101752591 787.9611370173976 352.81684359756525Q799.4084295012456 343.47978432412356 817.1864216163126 343.47978432412356L817.1864216163126 343.47978432412356Q835.8894474674481 343.47978432412356 847.5390910810611 353.1348239443388Q859.1598273904219 362.789863564554 859.1598273904219 377.82166177566756L859.1598273904219 377.82166177566756L840.2544504095215 377.82166177566756Q840.2544504095215 370.1034115403458 833.6924923442854 364.52430181968253Q827.1594415833014 358.9162847947671 817.1864216163126 358.9162847947671L817.1864216163126 358.9162847947671Q806.9243286068024 358.9162847947671 801.1428677563741 363.39691695384903Q795.3324996016937 367.8775491129309 795.3324996016937 375.0754678717142L795.3324996016937 375.0754678717142Q795.3324996016937 381.89759167521953 800.7381654968441 385.33756088122436Q806.1149240877425 388.8064373914813 820.1927812585353 391.95733355496475Q834.2706384293282 395.1082297184482 843.0006443134749 399.4732326605215Q851.7306501976216 403.83823560259486 855.9511166184343 409.99549140830095Q860.1715830392469 416.12383990975496 860.1715830392469 424.96947501091023L860.1715830392469 424.96947501091023Q860.1715830392469 439.71220017950236 848.3774029043732 448.6156498891619Q836.6121300737517 457.49019229456934 817.7934750056075 457.49019229456934L817.7934750056075 457.49019229456934Q804.5828369623789 457.49019229456934 794.4363731698772 452.8361163099746Q784.2610020731236 448.1531330211277 778.5084485269474 439.7700147880066Q772.7848022850234 431.38689655488565 772.7848022850234 421.61622771766184L772.7848022850234 421.61622771766184L791.5745500489154 421.61622771766184Q792.0948815254538 431.0689162081121 799.1482637629764 436.61911862452325Q806.2016460004988 442.14041373668226 817.7934750056075 442.14041373668226L817.7934750056075 442.14041373668226Q828.4602702746478 442.14041373668226 834.9355064271275 437.83322540311315Q841.381835275355 433.5260370695441 841.381835275355 426.2992110065087ZM891.3914716315596 318.87966840555123L910.1812193954515 318.87966840555123L910.1812193954515 345.5032956217735L930.7054054144719 345.5032956217735L930.7054054144719 360.04366966060064L910.1812193954515 360.04366966060064L910.1812193954515 428.23600039140223Q910.1812193954515 434.8268657608905 912.927413299405 438.15120574988674Q915.6736072033584 441.4466384346308 922.2644725728467 441.4466384346308L922.2644725728467 441.4466384346308Q925.5309979533386 441.4466384346308 931.2257368910105 440.2325316560409L931.2257368910105 440.2325316560409L931.2257368910105 455.4666809969194Q923.7965596982101 457.49019229456934 916.7720847649398 457.49019229456934L916.7720847649398 457.49019229456934Q904.1974074152583 457.49019229456934 897.7799858712829 449.88757127625615Q891.3914716315596 442.2560429536908 891.3914716315596 428.23600039140223L891.3914716315596 428.23600039140223L891.3914716315596 360.04366966060064L871.3587097848256 360.04366966060064L871.3587097848256 345.5032956217735L891.3914716315596 345.5032956217735L891.3914716315596 318.87966840555123ZM1009.9692336738437 397.536443275628L975.1070247457611 397.536443275628L975.1070247457611 455.4666809969194L955.5945943755657 455.4666809969194L955.5945943755657 307.49019053020754L1010.1715848036088 307.49019053020754Q1034.4826276796598 307.49019053020754 1048.242504503679 319.89142405437616Q1062.0023813276982 332.29265757854483 1062.0023813276982 352.7301216848088L1062.0023813276982 352.7301216848088Q1062.0023813276982 374.2660633526542 1048.5315775462004 385.9157069662672Q1035.0896810689546 397.536443275628 1009.9692336738437 397.536443275628L1009.9692336738437 397.536443275628ZM975.1070247457611 323.56265169439814L975.1070247457611 381.57961132844594L1010.1715848036088 381.57961132844594Q1025.8393437082693 381.57961132844594 1034.164647332886 374.2082487441499Q1042.4899509575027 366.83688615985386 1042.4899509575027 352.9324728145738L1042.4899509575027 352.9324728145738Q1042.4899509575027 339.7218347713452 1034.164647332886 331.7723261020063Q1025.8393437082693 323.85172473691955 1011.2989696694422 323.56265169439814L1011.2989696694422 323.56265169439814L975.1070247457611 323.56265169439814ZM1077.670140232359 400.80296865612L1077.670140232359 399.4732326605215Q1077.670140232359 383.31404958357444 1084.000839863578 370.39248458286727Q1090.360446799049 357.49982688641217 1101.6921100658885 350.4753519531418Q1113.0237733327278 343.47978432412356 1127.564147371555 343.47978432412356L1127.564147371555 343.47978432412356Q1150.0251227754688 343.47978432412356 1163.900628816497 359.03191401177565Q1177.7761348575248 374.58404369942775 1177.7761348575248 400.39826639659003L1177.7761348575248 400.39826639659003L1177.7761348575248 401.69909508793637Q1177.7761348575248 417.771556252127 1171.6188790518186 430.5196774273214Q1165.4616232461126 443.26779860251577 1154.0432380665166 450.3789954485426Q1142.5959455826687 457.49019229456934 1127.76649850132 457.49019229456934L1127.76649850132 457.49019229456934Q1105.3922450101627 457.49019229456934 1091.5456462733869 441.93806260691724Q1077.670140232359 426.41484022351733 1077.670140232359 400.80296865612L1077.670140232359 400.80296865612ZM1096.5755172132594 401.69909508793637L1096.5755172132594 401.69909508793637Q1096.5755172132594 419.99741867954197 1105.045357359137 431.0689162081121Q1113.5441048092664 442.14041373668226 1127.76649850132 442.14041373668226L1127.76649850132 442.14041373668226Q1142.1045214103822 442.14041373668226 1150.5165469477552 430.92437968685135Q1158.9574797893806 419.67943833276837 1158.9574797893806 399.4732326605215L1158.9574797893806 399.4732326605215Q1158.9574797893806 381.377260198681 1150.3720104264949 370.1612261488501Q1141.7865410636086 358.9162847947671 1127.564147371555 358.9162847947671L1127.564147371555 358.9162847947671Q1113.630826722023 358.9162847947671 1105.1031719676412 369.9877823233372Q1096.5755172132594 381.08818715615956 1096.5755172132594 401.69909508793637ZM1265.3652667415133 426.2992110065087L1265.3652667415133 426.2992110065087Q1265.3652667415133 418.6676826839434 1259.6127131953372 414.44721626313077Q1253.8890669534132 410.25565714657023 1239.6088586528551 407.19148289584325Q1225.3286503522975 404.1562159493684 1216.9455321191763 399.8779349200515Q1208.5624138860553 395.59965389073454 1204.5442985950076 389.70256382329774Q1200.52618330396 383.8054737558609 1200.52618330396 375.68252126100913L1200.52618330396 375.68252126100913Q1200.52618330396 362.1828101752591 1211.973475787808 352.81684359756525Q1223.391860967404 343.47978432412356 1241.1698530824708 343.47978432412356L1241.1698530824708 343.47978432412356Q1259.8728789336062 343.47978432412356 1271.5225225472193 353.1348239443388Q1283.1432588565801 362.789863564554 1283.1432588565801 377.82166177566756L1283.1432588565801 377.82166177566756L1264.2378818756797 377.82166177566756Q1264.2378818756797 370.1034115403458 1257.7048311146957 364.52430181968253Q1251.1428730494597 358.9162847947671 1241.1698530824708 358.9162847947671L1241.1698530824708 358.9162847947671Q1230.9077600729606 358.9162847947671 1225.1262992225322 363.39691695384903Q1219.344838372104 367.8775491129309 1219.344838372104 375.0754678717142L1219.344838372104 375.0754678717142Q1219.344838372104 381.89759167521953 1224.7215969630024 385.33756088122436Q1230.0983555539008 388.8064373914813 1244.1762127246936 391.95733355496475Q1258.2540698954865 395.1082297184482 1266.9840757796333 399.4732326605215Q1275.742988968032 403.83823560259486 1279.9634553888447 409.99549140830095Q1284.155014505405 416.12383990975496 1284.155014505405 424.96947501091023L1284.155014505405 424.96947501091023Q1284.155014505405 439.71220017950236 1272.3897416747834 448.6156498891619Q1260.59556153991 457.49019229456934 1241.7769064717656 457.49019229456934L1241.7769064717656 457.49019229456934Q1228.5662684285373 457.49019229456934 1218.4198046360355 452.8361163099746Q1208.2444335392815 448.1531330211277 1202.5207872973579 439.7700147880066Q1196.7682337511815 431.38689655488565 1196.7682337511815 421.61622771766184L1196.7682337511815 421.61622771766184L1215.5579815150736 421.61622771766184Q1216.0783129916122 431.0689162081121 1223.1316952291347 436.61911862452325Q1230.2139847709093 442.14041373668226 1241.7769064717656 442.14041373668226L1241.7769064717656 442.14041373668226Q1252.4726090450583 442.14041373668226 1258.9189378932858 437.83322540311315Q1265.3652667415133 433.5260370695441 1265.3652667415133 426.2992110065087ZM1315.374903097718 318.87966840555123L1334.16465086161 318.87966840555123L1334.16465086161 345.5032956217735L1354.68883688063 345.5032956217735L1354.68883688063 360.04366966060064L1334.16465086161 360.04366966060064L1334.16465086161 428.23600039140223Q1334.16465086161 434.8268657608905 1336.9108447655633 438.15120574988674Q1339.6570386695166 441.4466384346308 1346.2768113432571 441.4466384346308L1346.2768113432571 441.4466384346308Q1349.514429419497 441.4466384346308 1355.2091683571687 440.2325316560409L1355.2091683571687 440.2325316560409L1355.2091683571687 455.4666809969194Q1347.7799911643685 457.49019229456934 1340.7844235353502 457.49019229456934L1340.7844235353502 457.49019229456934Q1328.1808388814165 457.49019229456934 1321.763417337441 449.88757127625615Q1315.374903097718 442.2560429536908 1315.374903097718 428.23600039140223L1315.374903097718 428.23600039140223L1315.374903097718 360.04366966060064L1295.342141250984 360.04366966060064L1295.342141250984 345.5032956217735L1315.374903097718 345.5032956217735L1315.374903097718 318.87966840555123Z " fill="#e66510" transform="matrix(0.6456567602911004,0,0,0.6456567602911005,0,53.04261178935616)"/></g></svg>